<?xml version="1.0" encoding="UTF-8"?>
<svg id="Capa_1" data-name="Capa 1" xmlns="http://www.w3.org/2000/svg" xmlns:xlink="http://www.w3.org/1999/xlink" viewBox="0 0 158.43 37.74">
  <defs>
    <style>
      .cls-1 {
        fill: #fff;
        stroke: #122593;
        stroke-miterlimit: 10;
        stroke-width: .79px;
      }

      .cls-2 {
        clip-path: url(#clippath);
      }

      .cls-3 {
        fill: none;
      }

      .cls-4 {
        fill: #18123f;
      }
    </style>
    <clipPath id="clippath">
      <rect class="cls-3" width="158.43" height="37.74"/>
    </clipPath>
  </defs>
  <g class="cls-2">
    <g>
      <path class="cls-4" d="m22.4,28.99c-9.62,0-22.4-1.32-22.4-12.76S12.78,3.47,22.4,3.47c5.59,0,11.95.64,17.9,1.79l1.81.35-2.3,8.58-1.53-.24c-4.9-.78-10.69-1.58-16.46-1.58-10.6,0-10.6,2.06-10.6,3.87s0,3.87,10.6,3.87c2.8,0,5.65-.22,8.38-.49v-5.38h11.49v12.7l-1.39.27c-5.95,1.15-12.31,1.79-17.9,1.79h0Z"/>
      <path class="cls-4" d="m51.55,2.25h-10.69v26.37h10.69V2.25Z"/>
      <path class="cls-4" d="m50.5,28.62v-6.9l10.75-4.86s.22-.09.31-.13h-10.68v-7.54h33.21v6.92l-9.65,4.49h-.03c-.41.18-.81.35-1.22.51h10.9v7.51h-33.59,0Z"/>
      <path class="cls-4" d="m126.09,28.62v-9.59c0-.57,0-1.89-4-1.89-1.95,0-4.1.28-6.84.91v10.58h-10.69v-9.59c0-.57,0-1.89-4-1.89-1.92,0-4.01.29-6.84.95v10.53h-10.69V9.22h9.44l.3,1.25c3.59-1.12,6.98-1.69,10.13-1.69,4.13,0,7.16.77,9.23,2.33,4.52-1.57,8.56-2.33,12.33-2.33s6.77.67,8.82,2.06c2.32,1.57,3.49,3.99,3.49,7.19v10.6h-10.69Z"/>
      <path class="cls-4" d="m138.12,18.87c0-6.15.72-10.62,2.2-13.67C142,1.75,144.67,0,148.27,0s6.27,1.75,7.95,5.2c1.48,3.05,2.2,7.52,2.2,13.67s-.72,10.6-2.2,13.66c-1.68,3.46-4.35,5.21-7.95,5.21s-6.27-1.75-7.95-5.21c-1.48-3.06-2.2-7.52-2.2-13.66Zm11.89,0c0-3.7-.22-6.02-.69-7.29-.33-.89-.6-.89-1.04-.89s-.71,0-1.04.89c-.47,1.27-.69,3.59-.69,7.29s.22,6.02.69,7.29c.33.89.6.89,1.04.89s.71,0,1.04-.89c.47-1.27.69-3.59.69-7.29Z"/>
      <path class="cls-1" d="m22.4,5.19c6.1,0,12.39.75,17.58,1.76l-1.42,5.3c-4.53-.72-10.59-1.6-16.73-1.6-9.94,0-12.32,1.73-12.32,5.58s2.38,5.58,12.32,5.58c3.53,0,7.14-.35,10.09-.66v-5.21h8.06v9.57c-5.18,1-11.47,1.76-17.58,1.76-15.04,0-20.68-3.86-20.68-11.04S7.36,5.19,22.4,5.19Z"/>
      <path class="cls-1" d="m49.84,8.86h-7.25V3.97h7.25v4.89Zm-7.25,2.04h7.25v16h-7.25v-16Z"/>
      <path class="cls-1" d="m82.38,26.9h-30.16v-4.08l9.71-4.39c4.26-1.73,9.82-2.95,12.2-3.42h-21.53v-4.11h29.78v4.11l-8.63,4.01c-5.06,2.16-10.55,3.29-12.62,3.8h21.26v4.08h0Z"/>
      <path class="cls-1" d="m84.76,10.93h6.37l.42,1.76c3.42-1.22,7.33-2.2,11.36-2.2s7.1.78,8.86,2.57c3.76-1.38,8.17-2.57,12.7-2.57,6.83,0,10.59,2.2,10.59,7.53v8.88h-7.25v-7.87c0-2.45-1.92-3.61-5.72-3.61-2.61,0-5.37.47-8.63,1.29.04.41.08.85.08,1.32v8.88h-7.25v-7.87c0-2.45-1.92-3.61-5.72-3.61-2.61,0-5.33.5-8.56,1.32v10.16h-7.25v-15.97h0Z"/>
      <path class="cls-1" d="m156.71,18.87c0,11.55-2.6,17.15-8.44,17.15s-8.44-5.6-8.44-17.15,2.6-17.15,8.44-17.15,8.44,5.56,8.44,17.15Zm-11.89,0c0,7.83.97,9.9,3.45,9.9s3.45-2.07,3.45-9.9-.97-9.9-3.45-9.9-3.45,2.07-3.45,9.9Z"/>
      <path class="cls-4" d="m148.27,33.75c.9,0,1.64-.73,1.64-1.64s-.73-1.64-1.64-1.64-1.64.73-1.64,1.64.73,1.64,1.64,1.64Z"/>
      <path class="cls-4" d="m138.12,31.68H1.72v.97h136.4v-.97Z"/>
      <path class="cls-4" d="m138.12,33.81H1.72v.97h136.4v-.97Z"/>
    </g>
  </g>
</svg>