<?xml version="1.0" encoding="UTF-8"?>
<svg id="Capa_2" data-name="Capa 2" xmlns="http://www.w3.org/2000/svg" viewBox="0 0 203.46 378.25">
  <defs>
    <style>
      .cls-1 {
        fill: #201b3e;
      }

      .cls-2 {
        fill: #fff;
        stroke: #263681;
        stroke-miterlimit: 10;
        stroke-width: .79px;
      }
    </style>
  </defs>
  <g id="Capa_1-2" data-name="Capa 1">
    <g>
      <path class="cls-1" d="m0,189.13C0,127.49,7.22,82.69,22.05,52.12,38.89,17.54,65.65,0,101.73,0s62.84,17.54,79.68,52.12c14.83,30.57,22.05,75.37,22.05,137.01s-7.22,106.24-22.05,136.91c-16.84,34.68-43.6,52.22-79.68,52.22s-62.84-17.54-79.68-52.22C7.22,295.37,0,250.67,0,189.13h0Zm119.17,0c0-37.08-2.2-60.34-6.92-73.06-3.31-8.92-6.01-8.92-10.42-8.92s-7.12,0-10.42,8.92c-4.71,12.73-6.92,35.98-6.92,73.06s2.2,60.34,6.92,73.06c3.31,8.92,6.01,8.92,10.42,8.92s7.12,0,10.42-8.92c4.71-12.73,6.92-35.98,6.92-73.06Z"/>
      <path class="cls-2" d="m186.32,189.13c0,115.76-26.06,171.89-84.59,171.89S17.14,304.89,17.14,189.13,43.2,17.24,101.73,17.24s84.59,55.73,84.59,171.89Zm-119.17,0c0,78.48,9.72,99.22,34.58,99.22s34.58-20.75,34.58-99.22-9.72-99.22-34.58-99.22-34.58,20.75-34.58,99.22Z"/>
      <path class="cls-1" d="m101.73,338.26c9.02,0,16.44-7.32,16.44-16.44s-7.32-16.44-16.44-16.44-16.44,7.32-16.44,16.44,7.32,16.44,16.44,16.44Z"/>
    </g>
  </g>
</svg>